<?xml version="1.0" standalone="no"?><!DOCTYPE svg PUBLIC "-//W3C//DTD SVG 1.1//EN" "http://www.w3.org/Graphics/SVG/1.1/DTD/svg11.dtd"><svg t="1742905213630" class="icon" viewBox="0 0 1024 1024" version="1.1" xmlns="http://www.w3.org/2000/svg" p-id="22721" xmlns:xlink="http://www.w3.org/1999/xlink" width="200" height="200"><path d="M512 0C230.4 0 0 230.4 0 512s230.4 512 512 512 512-230.4 512-512-230.4-512-512-512z m0 960c-249.6 0-448-198.4-448-448s198.4-448 448-448 448 198.4 448 448-198.4 448-448 448z" p-id="22722" fill="#4E8613"></path><path d="M512 224c-19.2 0-32 12.8-32 32v300.8c0 19.2 12.8 32 32 32s32-12.8 32-32V256c0-19.2-12.8-32-32-32zM512 704c-19.2 0-32 12.8-32 32v32c0 19.2 12.8 32 32 32s32-12.8 32-32v-32c0-19.2-12.8-32-32-32z" p-id="22723" fill="#4E8613"></path></svg>