<?xml version="1.0" standalone="no"?><!DOCTYPE svg PUBLIC "-//W3C//DTD SVG 1.1//EN" "http://www.w3.org/Graphics/SVG/1.1/DTD/svg11.dtd"><svg t="1742905121567" class="icon" viewBox="0 0 1024 1024" version="1.1" xmlns="http://www.w3.org/2000/svg" p-id="20670" xmlns:xlink="http://www.w3.org/1999/xlink" width="200" height="200"><path d="M186.200255 837.770772h465.428207a46.542821 46.542821 0 0 1 46.542821 46.54282v93.085642a46.542821 46.542821 0 0 1-46.542821 46.54282H186.200255a46.542821 46.542821 0 0 1-46.54282-46.54282v-93.085642a46.542821 46.542821 0 0 1 46.54282-46.54282z m408.273623 43.587351l193.827577-193.827576a45.658507 45.658507 0 0 1 64.601435 0l64.624706 64.601435a45.70505 45.70505 0 0 1 0 64.601435l-193.850848 193.850848a45.70505 45.70505 0 0 1-64.601435 0l-64.601435-64.624707a45.658507 45.658507 0 0 1 0-64.601435z" fill="#4E8613" p-id="20671"></path><path d="M870.752062 744.68513L651.628462 963.80873A34.255516 34.255516 0 0 1 628.357052 977.399234c-23.27141 0.837771-488.699617 0-488.699617 0a46.542821 46.542821 0 0 1-46.542821-46.542821V46.542821a46.542821 46.542821 0 0 1 46.542821-46.542821h698.14231a46.542821 46.542821 0 0 1 46.54282 46.542821s0.721414 661.792367 0 674.870899a37.560056 37.560056 0 0 1-13.590503 23.27141zM837.799745 46.542821H139.657435v884.313592h478.576553L837.799745 711.290657V46.542821zM256.014486 395.613975a23.27141 23.27141 0 0 1 23.271411-23.27141h418.885386a23.27141 23.27141 0 0 1 0 46.542821H279.285897a23.27141 23.27141 0 0 1-23.271411-23.271411z m442.156797-162.899872H279.285897a23.27141 23.27141 0 0 1 0-46.54282h418.885386a23.27141 23.27141 0 0 1 0 46.54282zM279.285897 558.513848h232.714103a23.27141 23.27141 0 0 1 0 46.54282H279.285897a23.27141 23.27141 0 0 1 0-46.54282z" fill="#4E8613" p-id="20672"></path></svg>