<?xml version="1.0" standalone="no"?><!DOCTYPE svg PUBLIC "-//W3C//DTD SVG 1.1//EN" "http://www.w3.org/Graphics/SVG/1.1/DTD/svg11.dtd"><svg t="1742826198662" class="icon" viewBox="0 0 1368 1024" version="1.1" xmlns="http://www.w3.org/2000/svg" p-id="5969" xmlns:xlink="http://www.w3.org/1999/xlink" width="267.1875" height="200"><path d="M701.50621 75.393157c-9.515981 6.122414-22.425528 8.151557-35.999795 7.469345a17.265208 17.265208 0 0 1 4.75799 2.728847c20.378893 15.620902 48.979313 55.031757 48.979313 55.031757a160.757102 160.757102 0 0 1-58.425323-1.364424c-14.343942-3.358581-27.253489-15.60341-36.76947-27.848238-0.682212 8.151557-2.728847 16.303114-8.151557 22.408036-16.985326 19.031962-59.107535 44.833564-59.107536 44.833564s-4.75799-27.848238 3.393567-56.378688a70.46024 70.46024 0 0 1 16.303114-20.991134c-24.489656-7.469345-65.212457-35.999795-65.212456-35.999795a156.174038 156.174038 0 0 1 55.713968-17.667538c11.545124-1.364424 24.489656 3.393567 35.999795 9.515981 0-12.909547-3.393567-25.136883-13.591759-40.757785L617.926511 0.06997c14.273971 23.090248 18.34975 38.71115 18.349749 56.378688 8.151557-10.862912 19.014469-21.743316 31.241805-24.489656 25.819095-4.075779 74.728437 2.711355 74.728437 2.711355a151.398555 151.398555 0 0 1-40.740292 40.7228z" p-id="5970" fill="#4e6813"></path><path d="M742.998685 71.99959a196.022207 196.022207 0 0 1-26.501307 21.743316c-0.664719 0-0.664719 0.682212-1.346931 0.682212a326.849451 326.849451 0 0 1 25.136883 32.606229l20.378893 29.212661-36.017288 6.787134a179.369241 179.369241 0 0 1-68.606023-1.364424 80.780881 80.780881 0 0 1-23.77246-10.1807c-15.620902 16.985326-42.804421 34.635371-61.81889 46.862707l-30.577085 19.031961-5.42271-34.652864c-3.498522-20.378893-1.364424-46.180495 4.075779-65.894668a43.486633 43.486633 0 0 1 2.029143-5.42271c-8.746306-5.440202-18.34975-11.562616-26.501307-16.985326-48.454535 11.300227-69.463161 33.043544-89.877039 96.384291 56.186269 59.369924 69.72555 91.661286 71.964604 146.763013 0 0 218.657647 1.574335 320.394677 2.169084-3.498522-61.976323-13.014503-112.582449-34.82779-150.891269l35.335076-21.743317c39.725721 33.603307 41.509968 89.21232 11.807513 172.704556 17.492612 0.104956 30.052307 0.157434 35.579972 0.157434 17.982405-9.7084 24.612105-74.361093 24.612105-74.361093-0.052478-86.955773-60.506944-161.666718-146.045815-193.608227zM306.977844 203.683971c-75.218231 0-136.302431 61.136678-137.579392 136.284939h275.141291c-1.276961-76.372743-62.413639-136.284938-137.561899-136.284939zM1049.749125 304.301474c13.994089-47.125096 29.300125-95.527153 54.78686-138.838859a188.360443 188.360443 0 0 1 50.938485-58.60025l59.824732-43.294214c-12.734621 21.638361-29.282632 40.757785-43.294214 59.859718-15.288543 17.824971-25.486735 36.944396-34.407967 58.600249-16.548011 43.311707-30.559593 89.21232-43.294214 136.284938-2.553921 7.644271-3.830882 13.994089-6.367311 21.655854h174.593758c39.480825-132.471549 1.259468-280.23164-13.994089-332.359624-59.87721 13.994089-243.304737 64.950067-329.910658 198.698577a149.037052 149.037052 0 0 1-0.507286 112.512479 87.463059 87.463059 0 0 1-10.687986 19.871607h132.104204c3.848375-11.457661 6.402296-22.915321 10.215686-34.390475zM927.160901 812.724235l-24.104819-11.667572c-3.113685 19.049454 3.88336 39.270913 25.661662 60.664378-7.784212-16.722937-7.399375-33.113514-1.556843-48.996806zM915.108492 770.339637l27.603341 13.224414c32.658706-44.326278 97.206444-84.384359 134.15084-118.94976-41.999761 19.801637-128.710637 57.113377-161.754181 105.725346z" p-id="5971" fill="#4e6813"></path><path d="M1286.511625 384.557577H81.515571A82.075334 82.075334 0 0 0 0 466.073148c0 308.307282 249.707033 557.90936 556.632399 557.909359h253.485437c308.254804 0 557.90936-249.654555 557.90936-557.909359a82.092827 82.092827 0 0 0-81.515571-81.515571zM329.893165 757.762449c-6.367311 10.198193-17.824971 15.288543-29.282632 15.288543a36.017288 36.017288 0 0 1-19.119425-5.09035c-79.014127-52.232939-126.104238-141.392781-126.104238-241.975299 0-20.3614 15.288543-35.649943 34.407968-35.649943a35.597465 35.597465 0 0 1 35.649942 35.649943c0 75.218231 35.667435 145.188678 94.267685 183.427527 16.548011 10.145715 20.378893 31.731598 10.1807 48.349579z m912.222211-72.192009l-5.055365 3.498523-5.055365-3.498523a6.524744 6.524744 0 0 1-1.556842-1.154512c-29.947351 94.460104-117.427903 178.42464-219.304874 210.733494-53.265003 16.722937-85.154034 9.341055-114.699055-34.985224-22.950307-33.061036-33.830711-86.326039 38.098908-141.935052 69.218265-53.64984 117.043065-59.47488 181.923163-87.865389l-3.498523-1.941679 0.384838-5.055365s0.769675-31.486701 47.439963-54.052171a105.358001 105.358001 0 0 1 28.390509-9.341054 66.699329 66.699329 0 0 1 17.492612-0.769675c0.384837-6.612207 0.384837-13.224414 0.384837-19.434292a101.754523 101.754523 0 0 0-3.498522-22.950306l-3.88336-11.667573 12.437247 0.787168 33.830711 2.711355 7.76672 0.40233v7.381882a199.853089 199.853089 0 0 1-3.096193 30.332189c-1.959173 9.323562-4.28569 19.049454-6.997044 28.373016a65.457353 65.457353 0 0 1 12.052409 16.3381 119.701942 119.701942 0 0 1 9.341055 26.833666c8.588872 45.095953-22.512991 67.259092-22.897829 67.259092z" p-id="5972" fill="#4e6813"></path><path d="M1240.156204 599.646731a41.649909 41.649909 0 0 0-12.05241-14.781257l-4.268197-3.498522 1.556842-5.055365a222.593485 222.593485 0 0 0 8.16905-31.486701c1.154512-7.399375 2.326517-13.994089 2.711355-19.836622l-14.763765-1.172005c0.769675 4.670527 1.154512 10.11073 1.53935 15.550932a162.4189 162.4189 0 0 1-1.154512 30.717026l-1.172005 8.956218-9.323562-1.94168a50.50117 50.50117 0 0 0-20.221459-0.40233 62.29119 62.29119 0 0 0-22.950307 6.997044c-26.046499 12.45474-34.215549 27.218504-36.926903 34.617879 6.594715 1.556842 18.647124 3.113685 35.772391-2.728847l14.378926-4.670528-3.498522 14.39642a62.326176 62.326176 0 0 0 0.769675 28.775346c6.22737-1.94168 15.953262-6.612207 25.661662-18.279779l10.897897-12.437247 3.883359 15.935769a63.35824 63.35824 0 0 0 17.107775 29.160184c6.22737-6.997045 15.953262-22.163139 11.282734-46.267958a80.64094 80.64094 0 0 0-7.399374-22.547977z" p-id="5973" fill="#4e6813"></path></svg>