<?xml version="1.0" standalone="no"?><!DOCTYPE svg PUBLIC "-//W3C//DTD SVG 1.1//EN" "http://www.w3.org/Graphics/SVG/1.1/DTD/svg11.dtd"><svg t="1743078077562" class="icon" viewBox="0 0 1024 1024" version="1.1" xmlns="http://www.w3.org/2000/svg" p-id="3534" xmlns:xlink="http://www.w3.org/1999/xlink" width="200" height="200"><path d="M512.398178 301.705144a150.625042 150.625042 0 0 1-150.397511-150.795689A150.625042 150.625042 0 0 1 512.398178 0.056883a150.681924 150.681924 0 0 1 150.454394 150.852572 150.681924 150.681924 0 0 1-150.454394 150.795689z m108.531941 43.060104l132.820798-133.10521a75.084991 75.084991 0 0 1 106.370403 1.080769 75.540051 75.540051 0 0 1 0 105.574047l-175.767137 176.222197v453.97978c0 41.63804-33.674481 75.426286-75.198756 75.426286a75.369403 75.369403 0 0 1-75.255638-75.426286v-222.752138h-42.946339v222.809021a75.255638 75.255638 0 0 1-150.397512 0V494.537051L164.731919 318.257971A75.084991 75.084991 0 0 1 142.206422 265.186535a75.198756 75.198756 0 0 1 128.8959-53.526497l133.389623 133.10521h216.438174z" fill="#4E6813" p-id="3535"></path></svg>