<?xml version="1.0" standalone="no"?><!DOCTYPE svg PUBLIC "-//W3C//DTD SVG 1.1//EN" "http://www.w3.org/Graphics/SVG/1.1/DTD/svg11.dtd"><svg t="1743078107747" class="icon" viewBox="0 0 1024 1024" version="1.1" xmlns="http://www.w3.org/2000/svg" p-id="6219" xmlns:xlink="http://www.w3.org/1999/xlink" width="200" height="200"><path d="M819.918596 878.843509H754.526316a8.982456 8.982456 0 0 1-8.982456-8.982456v-158.270878a13.832982 13.832982 0 0 0-15.090527-11.677193c-8.26386 0-15.270175 5.389474-15.270175 11.497544l-0.898246 8.084211a51.020351 51.020351 0 0 1-96.830877 1.257544 80.662456 80.662456 0 0 1-9.341754-6.647018l-6.10807-5.209824v160.785965a8.982456 8.982456 0 0 1-8.982457 8.982456H172.283509a8.982456 8.982456 0 0 1-8.802807-7.365614 111.382456 111.382456 0 0 1 0-31.438597v-16.707368c0-148.569825 99.525614-311.33193 231.567719-378.88a112.280702 112.280702 0 0 1 23.354386-10.060351 73.296842 73.296842 0 0 1 63.955088 13.832982l217.375438 183.601404a112.280702 112.280702 0 0 1 32.157193-4.670877 104.016842 104.016842 0 0 1 73.656141 29.642105 76.171228 76.171228 0 0 1 22.815438 54.972631v158.270878a9.162105 9.162105 0 0 1-8.443509 8.982456z m-55.870877-17.964913h46.888421V711.410526a59.643509 59.643509 0 0 0-17.964912-42.217544 86.590877 86.590877 0 0 0-61.619649-24.252631 87.668772 87.668772 0 0 0-30.72 5.389474 8.802807 8.802807 0 0 1-8.802807-1.616843l-2.335439-1.97614L470.680702 461.698246a55.870877 55.870877 0 0 0-47.607018-10.24 110.124912 110.124912 0 0 0-18.863158 8.08421c-125.754386 64.314386-222.944561 223.663158-222.944561 363.609825v17.964912a116.232982 116.232982 0 0 0 0 19.402105h403.312281v-171.025965a9.162105 9.162105 0 0 1 14.910877-6.826666l20.839298 17.964912a50.661053 50.661053 0 0 0 9.701053 6.467368 8.802807 8.802807 0 0 1 4.850526 7.006316A30.001404 30.001404 0 0 0 666.138947 736.561404a30.540351 30.540351 0 0 0 31.079299-20.65965v-5.928421A31.258947 31.258947 0 0 1 730.992281 682.666667a31.618246 31.618246 0 0 1 33.055438 29.642105zM520.982456 812.014035H264.982456a8.802807 8.802807 0 0 1-8.802807-7.365614 69.164912 69.164912 0 0 1 0-19.941053v-10.06035a279.354386 279.354386 0 0 1 142.641404-233.54386 9.162105 9.162105 0 0 1 12.21614 3.952281 8.982456 8.982456 0 0 1-3.952281 12.036491 263.904561 263.904561 0 0 0-132.940351 217.375438 101.681404 101.681404 0 0 1 0 11.317895v8.084211h238.035088V693.445614a8.982456 8.982456 0 0 1 17.964912 0v109.585965a8.982456 8.982456 0 0 1-9.162105 8.982456z m-91.441403-91.800702a8.982456 8.982456 0 0 1-8.26386-5.389473c-11.138246-25.869474 21.557895-92.16 41.498947-102.040702 17.066667-8.623158 66.470175 22.276491 104.915088 49.583158a8.982456 8.982456 0 0 1 2.15579 12.575438 9.162105 9.162105 0 0 1-12.575439 1.976141c-38.624561-27.486316-78.686316-49.583158-87.129825-47.786667-11.317895 5.748772-39.522807 62.158596-32.336842 78.686316a8.982456 8.982456 0 0 1-4.670877 11.677193 8.084211 8.084211 0 0 1-3.413333 0.718596z m211.087719-209.291228a148.929123 148.929123 0 0 1-145.875088-105.274386l-42.93614 10.419649a32.69614 32.69614 0 0 1-40.241404-21.917193 31.258947 31.258947 0 0 1 5.928421-23.713684 81.92 81.92 0 0 1 35.929825-34.67228h2.335439l12.395789-56.589474v-1.796491a125.754386 125.754386 0 0 1 16.887018-39.343158c25.330526-35.929825 202.464561-69.883509 227.615438-56.409825A252.407018 252.407018 0 0 1 756.322807 215.578947l32.875789 38.804211a109.047018 109.047018 0 0 1 56.769123 12.934737 28.923509 28.923509 0 0 1 14.731228 14.731228 28.384561 28.384561 0 0 1-2.335438 23.354386 33.953684 33.953684 0 0 1-21.198597 15.988772l-51.2 12.755087a126.652632 126.652632 0 0 1 5.569123 37.546667c0 76.350877-67.727719 139.22807-150.905263 139.22807z m-139.22807-125.754386a9.521404 9.521404 0 0 1 4.850526 1.437193 9.341754 9.341754 0 0 1 3.952281 5.748772 130.245614 130.245614 0 0 0 130.425263 99.884912c73.296842 0 132.940351-54.792982 132.940351-122.161403a106.53193 106.53193 0 0 0-7.724912-40.421053 9.880702 9.880702 0 0 1 0-7.545263 9.341754 9.341754 0 0 1 5.928421-4.491228l60.721403-15.270175a15.449825 15.449825 0 0 0 9.880702-7.365614A10.958596 10.958596 0 0 0 844.350877 287.438596a80.123509 80.123509 0 0 0-55.33193-14.910877 8.802807 8.802807 0 0 1-9.341754-2.874386l-35.929825-42.217544A244.322807 244.322807 0 0 0 704.943158 197.614035c-17.964912-8.802807-184.679298 22.635789-204.440702 51.020351a103.298246 103.298246 0 0 0-13.832982 33.055439l-13.832983 63.056842a9.162105 9.162105 0 0 1-6.647017 6.826666l-7.724913 1.796492a68.446316 68.446316 0 0 0-29.462456 35.929824 14.910877 14.910877 0 0 0 17.964913 8.982456l51.738947-12.575438z" p-id="6220" fill="#4E6813"></path></svg>