<?xml version="1.0" standalone="no"?><!DOCTYPE svg PUBLIC "-//W3C//DTD SVG 1.1//EN" "http://www.w3.org/Graphics/SVG/1.1/DTD/svg11.dtd"><svg t="1742903954486" class="icon" viewBox="0 0 1024 1024" version="1.1" xmlns="http://www.w3.org/2000/svg" p-id="2593" xmlns:xlink="http://www.w3.org/1999/xlink" width="200" height="200"><path d="M983.21276 790.784a377.736 377.736 0 0 1-72.272-101.016A89.568 89.568 0 0 0 931.99676 632V450c0-82.712-67.288-150-150-150h-120a149.36 149.36 0 0 0-99.392 37.792C541.35676 280.752 486.34876 240 421.99676 240h-240C99.28476 240 31.99676 307.288 31.99676 390V632c0 49.624 40.376 90 90 90 14.816 0 28.8-3.624 41.144-10 2.096 1.696 4.44 3.16 7.04 4.272l41.816 17.92v199.808c0 49.624 40.376 90 90 90h420c49.624 0 90-40.376 90-90v-92h150a30 30 0 0 0 21.216-51.216zM571.99676 512v-62C571.99676 400.376 612.37276 360 661.99676 360h120C831.62076 360 871.99676 400.376 871.99676 450V632a30.032 30.032 0 0 1-30 30A30.032 30.032 0 0 1 811.99676 632V512.008a30 30 0 0 0-60 0v26.368l-150.016 64.288 0.016-0.664c0-31.128-11.92-59.52-31.424-80.872 0.92-2.88 1.424-5.944 1.424-9.128z m-30 90c0 33.088-26.92 60-60 60s-60-26.912-60-60 26.92-60 60-60 60 26.912 60 60z m-360-181.992a30 30 0 0 0-30 30V632a30.032 30.032 0 0 1-30 30A30.032 30.032 0 0 1 91.99676 632V390c0-49.624 40.376-90 90-90h240C471.62076 300 511.99676 340.376 511.99676 390v95.8a119.792 119.792 0 0 0-30-3.8c-66.168 0-120 53.832-120 120l0.016 0.664L211.99676 538.376V450.008a30 30 0 0 0-30-30zM331.99676 964h-30a30.032 30.032 0 0 1-30-30V759.904l60 25.72V964z m240-198.16v198.16H391.99676V765.84a30 30 0 0 0-18.184-27.576l-168.52-72.224c4.312-10.504 6.704-22 6.704-34.04v-28.344l179.384 76.88c22.016 25.368 54.464 41.464 90.616 41.464 36.16 0 68.6-16.096 90.616-41.472L751.99676 603.648V632c0 12.04 2.4 23.536 6.704 34.04l-168.52 72.224A30 30 0 0 0 571.99676 765.84z m210 16.16A30 30 0 0 0 751.99676 812v122a30.032 30.032 0 0 1-30 30H631.99676V785.624l155-66.432a29.824 29.824 0 0 0 11.344-8.528 89.424 89.424 0 0 0 60.808 9.68 436.912 436.912 0 0 0 37.696 61.656H781.99676zM331.99676 0c66.168 0 120 53.832 120 120s-53.832 120-120 120-120-53.832-120-120 53.832-120 120-120z m0 180c33.08 0 60-26.912 60-60s-26.92-60-60-60S271.99676 86.912 271.99676 120s26.92 60 60 60z m360-120c66.168 0 120 53.832 120 120s-53.832 120-120 120-120-53.832-120-120 53.832-120 120-120z m0 180c33.08 0 60-26.912 60-60S725.07676 120 691.99676 120 631.99676 146.912 631.99676 180s26.92 60 60 60z" fill="#4E6813" p-id="2594"></path></svg>