<?xml version="1.0" standalone="no"?><!DOCTYPE svg PUBLIC "-//W3C//DTD SVG 1.1//EN" "http://www.w3.org/Graphics/SVG/1.1/DTD/svg11.dtd"><svg t="1743225545918" class="icon" viewBox="0 0 1024 1024" version="1.1" xmlns="http://www.w3.org/2000/svg" p-id="2476" xmlns:xlink="http://www.w3.org/1999/xlink" width="200" height="200"><path d="M512 919.771429c-224.914286 0-407.771429-182.857143-407.771429-407.771429S287.085714 104.228571 512 104.228571s407.771429 182.857143 407.771429 407.771429-182.857143 407.771429-407.771429 407.771429z m0-778.971429C307.2 140.8 140.8 307.2 140.8 512c0 204.8 166.4 371.2 371.2 371.2 204.8 0 371.2-166.4 371.2-371.2 0-204.8-166.4-371.2-371.2-371.2z" fill="#4E6813" p-id="2477"></path><path d="M512 742.4c-89.6 0-162.742857-62.171429-162.742857-137.142857 0-10.971429 7.314286-18.285714 18.285714-18.285714s18.285714 7.314286 18.285714 18.285714c0 54.857143 56.685714 100.571429 126.171429 100.571428 69.485714 0 126.171429-45.714286 126.171429-100.571428 0-10.971429 7.314286-18.285714 18.285714-18.285714s18.285714 7.314286 18.285714 18.285714c0 76.8-73.142857 137.142857-162.742857 137.142857zM647.314286 486.4c-45.714286 0-84.114286-36.571429-84.114286-80.457143s38.4-80.457143 84.114286-80.457143 84.114286 36.571429 84.114285 80.457143-38.4 80.457143-84.114285 80.457143z m0-126.171429c-25.6 0-47.542857 20.114286-47.542857 43.885715s21.942857 43.885714 47.542857 43.885714 47.542857-20.114286 47.542857-43.885714-21.942857-43.885714-47.542857-43.885715zM310.857143 486.4c-5.485714 0-12.8-3.657143-14.628572-9.142857-5.485714-9.142857-3.657143-20.114286 5.485715-25.6l74.971428-47.542857-74.971428-47.542857c-9.142857-5.485714-10.971429-16.457143-5.485715-25.6 5.485714-9.142857 16.457143-10.971429 25.6-5.485715l98.742858 62.171429c5.485714 3.657143 9.142857 9.142857 9.142857 14.628571s-3.657143 14.628571-9.142857 18.285715l-98.742858 62.171428c-3.657143 1.828571-7.314286 3.657143-10.971428 3.657143z" fill="#4E6813" p-id="2478"></path></svg>