<?xml version="1.0" standalone="no"?><!DOCTYPE svg PUBLIC "-//W3C//DTD SVG 1.1//EN" "http://www.w3.org/Graphics/SVG/1.1/DTD/svg11.dtd"><svg t="1743225606455" class="icon" viewBox="0 0 1024 1024" version="1.1" xmlns="http://www.w3.org/2000/svg" p-id="5895" xmlns:xlink="http://www.w3.org/1999/xlink" width="200" height="200"><path d="M865.792 471.04c-45.568 0-86.528 27.136-99.84 68.608h-81.92c0-9.216 4.608-18.432 4.608-27.136 0-64-36.352-123.392-91.136-150.528L629.76 261.12c9.216 0 18.432 4.608 22.528 4.608 58.88 0 104.448-45.568 104.448-104.96s-45.568-104.96-104.448-104.96S547.84 101.376 547.84 160.768c0 45.568 27.136 81.92 63.488 95.744l-31.744 100.352c-18.432-9.216-40.96-13.824-63.488-13.824-45.568 0-81.92 18.432-113.664 45.568L247.808 229.376c18.432-18.432 27.136-45.568 27.136-73.216 0-59.392-45.568-104.96-104.448-104.96s-104.448 45.568-104.448 104.96S111.616 261.12 170.496 261.12c27.136 0 54.784-9.216 72.704-27.136l-4.608 4.608 154.624 155.136c-27.136 31.744-45.568 68.608-45.568 114.176 0 36.352 13.824 73.216 36.352 104.96L247.808 721.92c-18.432-27.136-50.176-40.96-81.92-40.96-58.88 0-104.448 45.568-104.448 104.96C61.44 844.8 107.008 890.88 165.888 890.88s104.448-45.568 104.448-104.96c0-18.432-4.608-36.352-13.824-50.176l136.192-109.568c31.744 31.744 77.312 54.784 122.88 54.784 27.136 0 50.176-4.608 68.096-13.824l45.568 109.568c-31.744 18.432-54.784 54.784-54.784 91.136 0 59.392 45.568 104.96 104.448 104.96s104.448-45.568 104.448-104.96-45.568-104.96-104.448-104.96c-13.824 0-27.136 4.608-36.352 9.216l-45.568-109.568c36.352-23.04 68.096-59.392 77.312-104.96h77.312v18.432c0 59.392 45.568 104.96 104.448 104.96 58.88 0 104.448-45.568 104.448-104.96 9.728-59.392-35.328-104.96-94.72-104.96z" p-id="5896" fill="#4E6813"></path><path d="M199.68 180.224l272.896 272.896L199.68 180.224z m443.904 0l-77.824 239.104 77.824-239.104z m165.888 370.688l-239.104-24.576 239.104 24.576z m-151.04 248.832L575.488 609.28l82.944 190.464z m-253.952-209.92l-199.68 160.768 199.68-160.768z" p-id="5897" fill="#4E6813"></path></svg>