<?xml version="1.0" standalone="no"?><!DOCTYPE svg PUBLIC "-//W3C//DTD SVG 1.1//EN" "http://www.w3.org/Graphics/SVG/1.1/DTD/svg11.dtd"><svg t="1742904667891" class="icon" viewBox="0 0 1027 1024" version="1.1" xmlns="http://www.w3.org/2000/svg" p-id="13809" xmlns:xlink="http://www.w3.org/1999/xlink" width="200.5859375" height="200"><path d="M512 844.8l-390.4-384C32 371.2 32 217.6 128 128 217.6 38.4 371.2 32 460.8 128l12.8 12.8 44.8 51.2 44.8-51.2c0-6.4 6.4-6.4 6.4-12.8C659.2 38.4 812.8 32 902.4 128c89.6 89.6 89.6 236.8 0 332.8l38.4 38.4c115.2-115.2 115.2-300.8 0-409.6-102.4-102.4-268.8-108.8-384-25.6l-38.4 44.8-38.4-38.4C364.8-25.6 192-19.2 89.6 89.6c-115.2 115.2-115.2 300.8 0 409.6L512 928l115.2-115.2-38.4-38.4L512 844.8z m0 0" p-id="13810" fill="#4E6813"></path><path d="M1004.8 832l-76.8-76.8c19.2-32 32-64 32-102.4 0-96-76.8-172.8-172.8-172.8s-172.8 76.8-172.8 172.8c0 96 76.8 172.8 172.8 172.8 38.4 0 70.4-12.8 102.4-32l76.8 76.8c6.4 6.4 12.8 6.4 19.2 6.4s12.8 0 19.2-6.4c6.4-12.8 6.4-25.6 0-38.4z m-102.4-179.2c0 32-12.8 64-32 83.2-19.2 25.6-51.2 32-83.2 32s-64-12.8-83.2-32c-25.6-25.6-32-51.2-32-83.2s12.8-64 32-83.2c19.2-25.6 51.2-32 83.2-32s64 12.8 83.2 32c19.2 25.6 32 51.2 32 83.2z" p-id="13811" fill="#4E6813"></path></svg>