<?xml version="1.0" standalone="no"?><!DOCTYPE svg PUBLIC "-//W3C//DTD SVG 1.1//EN" "http://www.w3.org/Graphics/SVG/1.1/DTD/svg11.dtd"><svg t="1742904466934" class="icon" viewBox="0 0 1195 1024" version="1.1" xmlns="http://www.w3.org/2000/svg" p-id="9331" xmlns:xlink="http://www.w3.org/1999/xlink" width="233.3984375" height="200"><path d="M539.673051 447.23535l0.064733-0.032366a210.703584 210.703584 0 0 1 161.99254 0.938618 29.776851 29.776851 0 0 0 39.163032-16.118339 29.776851 29.776851 0 0 0-16.053606-39.292496 269.512864 269.512864 0 0 0-105.028131-21.426386c-34.955433 0-69.943233 6.829256-103.312725 20.5525-67.839434 27.802516-120.30495 80.009103-147.719072 146.877552a29.841583 29.841583 0 0 0 6.214299 33.045831 22.203173 22.203173 0 0 0 9.321449 6.084835c16.215437 6.764524 33.434225-0.453126 39.777988-15.85941 22.073709-52.594981 62.07826-92.243505 115.579493-114.770339" fill="#4E6813" p-id="9332"></path><path d="M465.716417 597.511347a29.971047 29.971047 0 0 0 6.246665 33.045831 22.203173 22.203173 0 0 0 9.289083 6.052469c8.188634 3.366079 16.506732 3.366079 23.950945 0.194196a29.323725 29.323725 0 0 0 15.85941-16.053606l0.032366-0.097098a106.355143 106.355143 0 0 1 55.896327-55.928694 102.924332 102.924332 0 0 1 79.329414 0c15.373917 7.120551 33.045831 0.258929 40.198748-15.471016a29.647386 29.647386 0 0 0-16.183071-39.001201 165.261521 165.261521 0 0 0-63.664201-12.784626c-20.908528 0-41.914154 3.981035-62.013528 11.91074-41.266831 17.218788-72.079398 47.707693-88.942158 88.133005" fill="#4E6813" p-id="9333"></path><path d="M582.655288 245.367722c1.877236 7.411847 7.80024 12.558063 14.402933 12.558063 6.635059 0 12.590429-5.146217 14.402933-12.558063 43.694292-108.458942 141.634237-177.884316 249.898983-177.884316 150.696757 0 273.299703 133.380871 273.299702 297.347746 0 89.298186-35.732221 154.515962-83.083886 229.184652l-3.333713 5.793539c-3.560276 5.664075-24.436437 37.253429-85.673177 103.377458-79.588343 73.244579-101.823883 81.595044-104.089513 82.307099l-7.37948 2.297996-2.654024-7.250016c-0.323661-0.776787-30.586004-81.433213-90.301536-110.336178a196.947974 196.947974 0 0 0-89.589481-21.750047c-48.711044 0-96.127442 18.513433-131.6331 54.019091-73.632973 72.791453-74.442127 191.834124-1.780137 265.369998a187.788356 187.788356 0 0 0 134.448953 56.12289 185.134332 185.134332 0 0 0 132.63645-55.249005c25.213225-26.08711 41.881788-55.669764 49.487831-87.841709l0.550225-2.297996 3.398445-3.333713c2.718756-1.974335 137.102977-88.747961 237.599848-232.097604 1.941969-2.233264 3.10715-3.786839 4.045768-5.275681l4.725456-7.282382 0.161831 0.129465c41.94652-66.803717 92.858461-149.790505 92.858461-265.920223 0-200.67008-149.272647-363.9249-332.756305-363.9249h-0.064733c-98.943296-0.550224-195.426765 49.487831-257.731588 134.610784l-6.505595 8.868323-6.53796-8.771224C527.535748 49.423099 433.22081 0 332.756306 0 149.272647 0 0 163.67558 0 364.831152c0 118.03932 54.116189 204.230356 93.667615 267.182502l2.200898 3.495544-1.585941 3.851571a95.674316 95.674316 0 0 0 20.811429 104.186611l54.310386 54.27802a95.285922 95.285922 0 0 0 134.513686 0l36.476642-36.476642a95.285922 95.285922 0 0 0 0-134.513686l-54.310386-54.310386a94.347304 94.347304 0 0 0-67.224477-27.640686 94.509135 94.509135 0 0 0-67.256843 27.640686l-13.464315 14.435299-5.599343-9.030154c-36.9945-59.747898-73.082749-125.386434-73.082748-213.098679 0-163.966875 122.602946-297.347746 273.299703-297.347746 96.6453 0 185.166698 55.799229 233.97484 144.773753M157.072887 651.886466l36.476642-36.476642a34.696504 34.696504 0 0 1 49.714394 0l54.27802 54.310386a34.987799 34.987799 0 0 1 0 49.714394l-36.476642 36.509008c-6.958721 6.958721-15.956508 10.454264-24.889563 10.454264s-17.86611-3.463177-24.857197-10.454264l-54.245654-54.310386a34.955433 34.955433 0 0 1 0-49.74676m602.366268 274.885643l-0.064732 0.064733c-24.954295 24.533536-57.80593 36.800303-90.657564 36.800303s-65.670902-12.266768-90.657563-36.800303a128.493584 128.493584 0 0 1-0.032366-181.476958 127.393135 127.393135 0 0 1 90.366268-37.382894l0.453126-0.032366c34.308111 0 66.447689 13.270118 90.592831 37.41526a128.428851 128.428851 0 0 1 0 181.412225" fill="#4E6813" p-id="9334"></path></svg>