<?xml version="1.0" standalone="no"?><!DOCTYPE svg PUBLIC "-//W3C//DTD SVG 1.1//EN" "http://www.w3.org/Graphics/SVG/1.1/DTD/svg11.dtd"><svg t="1743166751030" class="icon" viewBox="0 0 1024 1024" version="1.1" xmlns="http://www.w3.org/2000/svg" p-id="11960" xmlns:xlink="http://www.w3.org/1999/xlink" width="200" height="200"><path d="M652.288 85.333333a141.312 141.312 0 0 1 134.0928 98.013867l1.3312 4.386133 1.792 6.144a97.792 97.792 0 0 0 89.634133 70.5536l4.061867 0.1024a141.056 141.056 0 0 1 140.731733 136.4992l0.068267 4.3008v409.6a141.056 141.056 0 0 1-136.4992 140.731734L883.2 955.733333H140.8a141.056 141.056 0 0 1-140.731733-136.4992L0 814.933333v-409.6a141.056 141.056 0 0 1 136.4992-140.731733l4.3008-0.068267a97.792 97.792 0 0 0 92.433067-66.4064l1.262933-3.9936 1.792-6.4a141.312 141.312 0 0 1 129.8432-102.280533L370.688 85.333333h281.6z m0 51.2H370.705067l-3.464534 0.119467a90.043733 90.043733 0 0 0-80.4864 61.115733l-1.160533 3.754667-1.9456 6.946133a148.992 148.992 0 0 1-138.154667 107.178667l-4.608 0.085333a89.838933 89.838933 0 0 0-89.6 85.9136L51.2 405.333333v409.514667a89.838933 89.838933 0 0 0 85.9136 89.6L140.8 904.533333h742.314667a89.838933 89.838933 0 0 0 89.6-85.9136L972.8 814.933333V405.418667a89.856 89.856 0 0 0-86.033067-89.6l-3.703466-0.085334a148.957867 148.957867 0 0 1-141.3632-103.1168l-1.348267-4.4032-1.860267-6.382933a90.077867 90.077867 0 0 0-82.2272-65.194667L652.288 136.533333zM699.733333 554.666667a25.6 25.6 0 0 1 25.6 25.6 212.753067 212.753067 0 0 1-62.481066 150.852266A212.753067 212.753067 0 0 1 512 793.6a212.753067 212.753067 0 0 1-129.877333-44.066133l-1.604267-1.297067V768a25.6 25.6 0 0 1-23.125333 25.480533l-2.4576 0.119467a25.6 25.6 0 0 1-25.480534-23.1424L329.335467 768v-84.872533c0-24.6272 31.010133-34.6624 45.636266-15.940267l1.365334 1.8944a163.037867 163.037867 0 0 0 73.608533 61.0304c19.490133 8.072533 40.448 12.288 62.0544 12.288a161.570133 161.570133 0 0 0 114.653867-47.479467A161.570133 161.570133 0 0 0 674.133333 580.266667a25.6 25.6 0 0 1 25.6-25.6z m-187.733333-187.733334a213.2992 213.2992 0 0 1 129.809067 44.032l1.6384 1.297067v-18.2272a25.6 25.6 0 0 1 23.1424-25.480533l2.4576-0.119467a25.6 25.6 0 0 1 25.480533 23.125333l0.119467 2.474667v83.387733c0 25.429333-33.0752 35.293867-47.018667 14.011734A162.082133 162.082133 0 0 0 512 418.133333a161.570133 161.570133 0 0 0-114.653867 47.479467A161.570133 161.570133 0 0 0 349.866667 580.266667a25.6 25.6 0 0 1-51.2 0 212.753067 212.753067 0 0 1 62.481066-150.852267A212.753067 212.753067 0 0 1 512 366.933333z" fill="#4E6813" opacity=".8" p-id="11961"></path></svg>