<?xml version="1.0" standalone="no"?><!DOCTYPE svg PUBLIC "-//W3C//DTD SVG 1.1//EN" "http://www.w3.org/Graphics/SVG/1.1/DTD/svg11.dtd"><svg t="1742904563226" class="icon" viewBox="0 0 1024 1024" version="1.1" xmlns="http://www.w3.org/2000/svg" p-id="10465" xmlns:xlink="http://www.w3.org/1999/xlink" width="200" height="200"><path d="M816.81 814.62H207.19c-33.08 0-60-26.92-60-60V564.38c0-5.52 4.48-10 10-10H866.8c5.52 0 10 4.48 10 10v190.23c0.01 33.09-26.91 60.01-59.99 60.01zM167.19 574.38v180.23c0 22.06 17.94 40 40 40H816.8c22.06 0 40-17.94 40-40V574.38H167.19z" fill="#4E6813" p-id="10466"></path><path d="M858.81 574.44H165.19c-9.93 0-18-8.08-18-18V329.38c0-23.61 9.11-46.13 25.65-63.41 16.17-16.9 37.8-26.59 59.35-26.59h86.89c5.52 0 10 4.48 10 10s-4.48 10-10 10h-86.89c-34.63 0-65 32.71-65 70v225.05H856.8V329.38c0-39.25-32.94-70-75-70h-76.89c-5.52 0-10-4.48-10-10s4.48-10 10-10h76.89c53.27 0 95 39.53 95 90v227.05c0.01 9.93-8.07 18.01-17.99 18.01z" fill="#4E6813" p-id="10467"></path><path d="M664.34 253.38H359.66c-5.52 0-10-4.48-10-10s4.48-10 10-10h304.68c5.52 0 10 4.48 10 10s-4.48 10-10 10z" fill="#4E6813" p-id="10468"></path><path d="M339.11 306c-16.55 0-30.02-15.28-30.02-34.07v-68.47c0-18.79 13.47-34.07 30.02-34.07s30.02 15.28 30.02 34.07v68.47c0 18.79-13.47 34.07-30.02 34.07z m0-116.62c-5.34 0-10.02 6.58-10.02 14.07v68.47c0 7.5 4.68 14.07 10.02 14.07s10.02-6.58 10.02-14.07v-68.47c0-7.49-4.69-14.07-10.02-14.07zM684.89 306c-16.55 0-30.02-13.47-30.02-30.02v-76.57c0-16.55 13.47-30.02 30.02-30.02s30.02 13.47 30.02 30.02v76.57c0.01 16.55-13.46 30.02-30.02 30.02z m0-116.62c-5.53 0-10.02 4.5-10.02 10.02v76.57c0 5.53 4.5 10.02 10.02 10.02 5.53 0 10.02-4.5 10.02-10.02V199.4c0.01-5.52-4.49-10.02-10.02-10.02z" fill="#4E6813" p-id="10469"></path><path d="M366.25 469.08h-46.34v29.31h-9.6v-29.31h-59.14v-9.22h20.99v-34.31h38.15V406.1H279.2c-5.76 9.86-12.54 18.56-19.46 25.22-1.79-1.54-5.76-4.74-8.19-6.02 12.03-10.5 22.79-27.01 28.8-44.16l9.6 2.3c-1.79 4.48-3.84 9.09-5.89 13.44h76.29v9.22H319.9v19.46h37.51v8.96H319.9v25.35h46.34v9.21z m-55.94-9.21v-25.35h-28.67v25.35h28.67z" fill="#4E6813" p-id="10470"></path><path d="M319.91 501.4h-9.6c-1.66 0-3-1.34-3-3v-26.31h-56.14c-1.66 0-3-1.34-3-3v-9.22c0-1.66 1.34-3 3-3h17.99v-31.25c-2.38 2.83-4.84 5.46-7.34 7.87a3.005 3.005 0 0 1-4.03 0.12c-1.97-1.69-5.63-4.58-7.64-5.64a2.968 2.968 0 0 1-1.58-2.31 2.98 2.98 0 0 1 1.01-2.61c11.64-10.15 22.08-26.19 27.94-42.89a2.996 2.996 0 0 1 3.53-1.92l9.6 2.3c0.85 0.2 1.56 0.76 1.96 1.54s0.44 1.68 0.12 2.49c-1.17 2.92-2.5 6.04-3.99 9.33h71.6c1.66 0 3 1.34 3 3v9.22c0 1.66-1.34 3-3 3h-37.45v13.46h34.51c1.66 0 3 1.34 3 3v8.96c0 1.66-1.34 3-3 3h-34.51v19.35h43.34c1.66 0 3 1.34 3 3v9.22c0 1.66-1.34 3-3 3h-43.34v26.31c0.02 1.63-1.33 2.98-2.98 2.98z m-6.6-6h3.6v-26.31c0-1.66 1.34-3 3-3h43.34v-3.22h-43.34c-1.66 0-3-1.34-3-3v-25.35c0-1.66 1.34-3 3-3h34.51v-2.96h-34.51c-1.66 0-3-1.34-3-3V406.1c0-1.66 1.34-3 3-3h37.45v-3.22h-73.29c-1.03 0-1.98-0.53-2.53-1.39s-0.62-1.96-0.18-2.88c1.66-3.53 3.17-6.9 4.5-10.06l-3.59-0.86c-5.81 15.33-15.21 29.95-25.82 40.2 1.12 0.81 2.22 1.66 3.12 2.39 6.17-6.31 12.03-14.1 17.05-22.69 0.54-0.92 1.52-1.49 2.59-1.49h31.11c1.66 0 3 1.34 3 3v19.46c0 1.66-1.34 3-3 3h-35.15v31.31c0 1.66-1.34 3-3 3h-17.99v3.22h56.14c1.66 0 3 1.34 3 3v26.31z m-32.4-86.3c-2.88 4.79-6.01 9.33-9.3 13.51 0.18-0.03 0.37-0.05 0.56-0.05h35.15V409.1h-26.41z m29.4 53.77h-28.67c-1.66 0-3-1.34-3-3v-25.35c0-1.66 1.34-3 3-3h28.67c1.66 0 3 1.34 3 3v25.35c0 1.65-1.35 3-3 3z m-25.68-6h22.67v-19.35h-22.67v19.35zM556.71 484.44c0 6.66-1.92 9.98-6.66 11.52-4.86 1.66-13.31 1.79-27.01 1.79-0.64-2.69-2.43-7.17-4.1-9.86 10.75 0.38 20.99 0.26 23.94 0.26 2.94-0.13 3.97-1.02 3.97-3.84v-25.6h-61.44c-3.2 14.46-9.6 28.93-22.02 39.81-1.28-2.05-5.12-5.5-7.04-6.91 20.35-17.92 22.4-43.91 22.4-64.26v-39.17h77.96v96.26z m-9.86-35.07v-21.5h-58.5c0 6.66-0.38 13.95-1.41 21.5h59.91z m-58.5-51.84v21.25h58.5v-21.25h-58.5z" fill="#4E6813" p-id="10471"></path><path d="M463.39 501.52c-0.15 0-0.29-0.01-0.44-0.03a3.01 3.01 0 0 1-2.11-1.38c-0.91-1.45-4.26-4.61-6.27-6.08a3.013 3.013 0 0 1-0.21-4.68c18.84-16.59 21.38-40.66 21.38-62.01v-39.17c0-1.66 1.34-3 3-3h77.96c1.66 0 3 1.34 3 3v96.26c0 5.37-0.99 11.86-8.73 14.37-5.39 1.84-14.13 1.94-27.94 1.94-1.39 0-2.6-0.95-2.92-2.31-0.55-2.31-2.18-6.47-3.73-8.97-0.58-0.94-0.6-2.13-0.04-3.09s1.56-1.55 2.7-1.49c9.05 0.32 17.78 0.28 21.98 0.26l1.78-0.01c0.51-0.02 0.82-0.07 1-0.11 0.02-0.15 0.04-0.38 0.04-0.73v-22.6h-56.06c-4.03 16.42-11.57 29.56-22.42 39.07-0.54 0.5-1.24 0.76-1.97 0.76z m60.5-10.48c0.54 1.27 1.02 2.55 1.41 3.71 11.63-0.02 19.62-0.2 23.79-1.63 3.02-0.98 4.63-2.65 4.63-8.68v-93.26h-71.96v36.17c0 21.72-2.55 46.14-20.85 64.13 0.93 0.82 1.91 1.76 2.79 2.69 9.15-8.94 15.47-21.06 18.79-36.1 0.3-1.37 1.52-2.35 2.93-2.35h61.44c1.66 0 3 1.34 3 3v25.6c0 4.4-2.24 6.64-6.84 6.84h-0.13l-1.82 0.01c-3.46 0.01-9.94 0.04-17.18-0.13z m22.96-38.67h-59.91c-0.87 0-1.69-0.37-2.26-1.03s-0.83-1.52-0.71-2.38c0.92-6.76 1.38-13.86 1.38-21.1 0-1.66 1.34-3 3-3h58.5c1.66 0 3 1.34 3 3v21.5c0 1.67-1.34 3.01-3 3.01z m-56.51-6h53.51v-15.5h-52.52c-0.09 5.27-0.42 10.46-0.99 15.5z m56.51-24.59h-58.5c-1.66 0-3-1.34-3-3v-21.25c0-1.66 1.34-3 3-3h58.5c1.66 0 3 1.34 3 3v21.25c0 1.65-1.34 3-3 3z m-55.5-6h52.5v-15.25h-52.5v15.25z" fill="#4E6813" p-id="10472"></path><path d="M765.48 390.23v106.12h-9.98v-7.81H692v8.32h-9.6V390.23h83.08zM692 399.57v34.56h63.49v-34.56H692z m63.49 79.62v-35.71H692v35.71h63.49z" fill="#4E6813" p-id="10473"></path><path d="M692 499.86h-9.6c-1.66 0-3-1.34-3-3V390.23c0-1.66 1.34-3 3-3h83.08c1.66 0 3 1.34 3 3v106.12c0 1.66-1.34 3-3 3h-9.98c-1.66 0-3-1.34-3-3v-4.81H695v5.32c0 1.66-1.34 3-3 3z m-6.6-6h3.6v-5.32c0-1.66 1.34-3 3-3h63.49c1.66 0 3 1.34 3 3v4.81h3.98V393.23H685.4v100.63z m70.09-11.67H692c-1.66 0-3-1.34-3-3v-35.71c0-1.66 1.34-3 3-3h63.49c1.66 0 3 1.34 3 3v35.71c0 1.66-1.34 3-3 3z m-60.49-6h57.49v-29.71H695v29.71z m60.49-39.05H692c-1.66 0-3-1.34-3-3v-34.56c0-1.66 1.34-3 3-3h63.49c1.66 0 3 1.34 3 3v34.56c0 1.65-1.34 3-3 3z m-60.49-6h57.49v-28.56H695v28.56z" fill="#4E6813" p-id="10474"></path><path d="M543 722h-62c-11.58 0-21-9.42-21-21v-62c0-11.58 9.42-21 21-21h62c11.19 0 21 8.88 21 19v62c0 13.11-9.03 23-21 23z m-62-86c-1.63 0-3 1.37-3 3v62c0 1.63 1.37 3 3 3h62c2.21 0 3-2.69 3-5v-61.46c-0.39-0.55-1.56-1.54-3-1.54h-62z m65.11 1.72zM334.5 722h-62c-11.58 0-21-9.42-21-21v-62c0-11.58 9.42-21 21-21h62c11.19 0 21 8.88 21 19v62c0 13.11-9.03 23-21 23z m-62-86c-1.63 0-3 1.37-3 3v62c0 1.63 1.37 3 3 3h62c2.21 0 3-2.69 3-5v-61.46c-0.39-0.55-1.56-1.54-3-1.54h-62z m65.11 1.72zM751.5 722h-62c-11.58 0-21-9.42-21-21v-62c0-11.58 9.42-21 21-21h62c11.19 0 21 8.88 21 19v62c0 13.11-9.03 23-21 23z m-62-86c-1.63 0-3 1.37-3 3v62c0 1.63 1.37 3 3 3h62c2.21 0 3-2.69 3-5v-61.46c-0.39-0.55-1.56-1.54-3-1.54h-62z m65.11 1.72z" fill="#4E6813" p-id="10475"></path></svg>