<?xml version="1.0" standalone="no"?><!DOCTYPE svg PUBLIC "-//W3C//DTD SVG 1.1//EN" "http://www.w3.org/Graphics/SVG/1.1/DTD/svg11.dtd"><svg t="1742904162678" class="icon" viewBox="0 0 1024 1024" version="1.1" xmlns="http://www.w3.org/2000/svg" p-id="4293" xmlns:xlink="http://www.w3.org/1999/xlink" width="200" height="200"><path d="M713.7 780.2H510.1c-9.5 0-17.1-7.7-17.1-17.1 0-9.5 7.7-17.1 17.1-17.1h173.6l7-52.4-1.8 2.7 41.6-301.8H478.2l19.3 144.8c1.3 9.4-5.3 18-14.7 19.3-9.3 1.3-18-5.3-19.3-14.7L439 360.2h330.8l-27 195.4 1-1.5-30.1 226.1z" fill="#74070E" p-id="4294"></path><path d="M758.7 385.8H441.5c-6.1 0-11.8-3.3-14.8-8.5-3.1-5.3-3.1-11.8-0.1-17.1l34.3-60c3.1-5.3 8.7-8.6 14.9-8.6h248.6c6.2 0 11.8 3.3 14.9 8.6l34.3 60c3 5.3 3 11.8-0.1 17.1-3 5.2-8.7 8.5-14.8 8.5zM471 351.5h258.1l-14.7-25.7H485.7L471 351.5z" fill="#74070E" p-id="4295"></path><path d="M715.8 325.8H484.4c-9.5 0-17.1-7.7-17.1-17.1v-51.4c0-9.5 7.7-17.1 17.1-17.1h231.5c9.5 0 17.1 7.7 17.1 17.1v51.4c0 9.4-7.7 17.1-17.2 17.1z m-214.3-34.3h197.2v-17.1H501.5v17.1zM561.5 634.4H244.3c-9.5 0-17.1-7.7-17.1-17.1V583c0-28.4 23.1-51.4 51.4-51.4h248.6c28.4 0 51.4 23.1 51.4 51.4v34.3c0.1 9.5-7.6 17.1-17.1 17.1z m-300.1-34.3h282.9V583c0-9.5-7.7-17.1-17.1-17.1H278.6c-9.5 0-17.1 7.7-17.1 17.1v17.1zM527.2 771.6H278.6c-28.4 0-51.4-23.1-51.4-51.4v-34.3c0-9.5 7.7-17.1 17.1-17.1h317.2c9.5 0 17.1 7.7 17.1 17.1v34.3c0.1 28.3-23 51.4-51.4 51.4zM261.4 703v17.1c0 9.5 7.7 17.1 17.1 17.1h248.6c9.5 0 17.1-7.7 17.1-17.1V703H261.4z" fill="#74070E" p-id="4296"></path><path d="M497.2 703H300c-21.3 0-38.6-17.3-38.6-38.6v-25.7c0-21.3 17.3-38.6 38.6-38.6h197.2c21.3 0 38.6 17.3 38.6 38.6v25.7c0 21.3-17.3 38.6-38.6 38.6zM300 634.4c-2.3 0-4.3 2-4.3 4.3v25.7c0 2.3 2 4.3 4.3 4.3h197.2c2.3 0 4.3-2 4.3-4.3v-25.7c0-2.3-2-4.3-4.3-4.3H300zM206.411 222.137l24.254-24.254L830.85 798.07l-24.253 24.253z" fill="#74070E" p-id="4297"></path><path d="M510.1 960.2c-245.8 0-445.8-200-445.8-445.8s200-445.8 445.8-445.8 445.8 200 445.8 445.8-200 445.8-445.8 445.8z m0-857.3c-226.9 0-411.5 184.6-411.5 411.5s184.6 411.5 411.5 411.5 411.5-184.6 411.5-411.5S737 102.9 510.1 102.9z" fill="#74070E" p-id="4298"></path></svg>