<svg xmlns="http://www.w3.org/2000/svg" viewBox="0 0 24 24" fill="none" stroke="#333333" stroke-width="2" stroke-linecap="round" stroke-linejoin="round">
  <path d="M8.2 15.5c-1.2 0-2.1-.9-2.1-2s1-2 2.1-2c1.2 0 2.1.9 2.1 2s-1 2-2.1 2z" />
  <path d="M14.8 15.5c-1.2 0-2.1-.9-2.1-2s1-2 2.1-2c1.2 0 2.1.9 2.1 2s-1 2-2.1 2z" />
  <path d="M15.5 8.7c.2-.3.3-.7.3-1.1C15.8 5 13.3 3 10.1 3S4.4 5 4.4 7.6c0 1.4.7 2.7 1.8 3.6.2.1.3.3.2.5l-.4 1.2c-.1.4.3.7.7.5l1.3-.6c.2-.1.4-.1.5 0 .5.2 1.1.2 1.6.2" />
  <path d="M17.7 19c1.1-.9 1.7-2.1 1.7-3.5C19.4 12.6 17 11 14 11s-5.4 1.6-5.4 4.5 2.4 4.5 5.4 4.5c.6 0 1.2-.1 1.7-.2.1-.1.3 0 .5.1l1.2.5c.4.2.8-.1.7-.5l-.3-1.1c-.1-.2 0-.4.2-.5" />
</svg> 